<svg xmlns="http://www.w3.org/2000/svg" xmlns:xlink="http://www.w3.org/1999/xlink" height="150px" id="Layer_1" version="1.1" viewBox="13 22 50 40" preserveAspectRatio="none" width="300px" xml:space="preserve"><g><g><g><path d="M17.232,55.507c-0.621-0.002-1.123-0.504-1.124-1.123l0,0V25.585c0.001-0.62,0.503-1.122,1.124-1.123l0,0h42.58     c0.62,0.001,1.123,0.503,1.123,1.123l0,0v28.799l0,0c0,0.619-0.503,1.121-1.123,1.123l0,0H17.232L17.232,55.507z M17.121,25.585     v28.799c0,0.061,0.05,0.109,0.111,0.109l0,0h42.58c0.061,0,0.11-0.049,0.111-0.109l0,0h-0.001l0.001-28.799     c-0.001-0.061-0.051-0.11-0.111-0.11l0,0h-42.58C17.171,25.475,17.121,25.524,17.121,25.585L17.121,25.585z"/></g></g><g><g><path d="M32.413,36.871c-2.229-1.27-4.734-2.95-7.091-4.629l0,0c-4.711-3.357-8.822-6.708-8.827-6.712l0,0l0.639-0.784     c0.006,0.003,2.302,1.875,5.429,4.222l0,0c3.126,2.346,7.08,5.162,10.35,7.023l0,0c2.166,1.245,4.083,2.042,5.047,2.024l0,0     c0.615,0.012,1.877-0.431,3.375-1.196l0,0c1.508-0.762,3.295-1.826,5.144-3.012l0,0c3.699-2.372,7.651-5.226,10.218-7.128l0,0     c1.712-1.269,2.803-2.11,2.807-2.112l0,0l0.617,0.801c-0.01,0.008-9.891,7.631-16.694,11.477l0,0     c-2.288,1.278-4.165,2.162-5.466,2.184l0,0C36.561,39.011,34.655,38.134,32.413,36.871L32.413,36.871z"/></g></g></g></svg> 	